<svg width="16" height="16" viewBox="0 0 16 16" fill="none" xmlns="http://www.w3.org/2000/svg">
<path fill-rule="evenodd" clip-rule="evenodd" d="M6.78682 1.99492C7.32568 1.06159 8.67283 1.06159 9.21169 1.99492L14.2346 10.6949C14.7735 11.6283 14.0999 12.7949 13.0222 12.7949H2.97631C1.89858 12.7949 1.22501 11.6283 1.76387 10.6949L6.78682 1.99492ZM7.99922 3.99893C8.33059 3.99893 8.59922 4.26755 8.59922 4.59893V7.39893C8.59922 7.7303 8.33059 7.99893 7.99922 7.99893C7.66785 7.99893 7.39922 7.7303 7.39922 7.39893L7.39922 4.59893C7.39922 4.26755 7.66785 3.99893 7.99922 3.99893ZM7.99922 11.1989C8.44105 11.1989 8.79922 10.8408 8.79922 10.3989C8.79922 9.9571 8.44105 9.59893 7.99922 9.59893C7.55739 9.59893 7.19922 9.9571 7.19922 10.3989C7.19922 10.8408 7.55739 11.1989 7.99922 11.1989Z" fill="#F95A3A"/>
</svg>
