<svg width="60" height="60" viewBox="0 0 60 60" fill="none" xmlns="http://www.w3.org/2000/svg">
<path d="M58.3857 1.63268C57.336 0.582918 55.9091 0 54.4295 0H5.58883C4.12501 0 2.68233 0.601366 1.63261 1.63268C0.582892 2.66395 0 4.09089 0 5.58907V54.4109C0 55.9117 0.580239 57.3176 1.63261 58.3673C2.68233 59.4171 4.10921 60 5.58883 60H54.4085C55.8723 60 57.315 59.3986 58.3648 58.3673C59.4145 57.3361 59.9974 55.9091 59.9974 54.4109L60 5.58907C60 4.08826 59.4198 2.68245 58.3674 1.63268H58.3857ZM56.9799 54.4134C56.9799 55.0886 56.7162 55.7454 56.2309 56.2149C55.7429 56.6843 55.1047 56.9639 54.4295 56.9639H5.58883C4.91364 56.9639 4.25688 56.6817 3.78742 56.2149C3.31795 55.7454 3.03836 55.0886 3.03836 54.4134V5.5888C3.03836 4.91358 3.3021 4.2568 3.78742 3.78731C4.27535 3.31783 4.91364 3.03822 5.58883 3.03822H54.4085C55.0837 3.03822 55.7405 3.32045 56.2099 3.78731C56.6794 4.2568 56.959 4.91358 56.959 5.5888V54.4107L56.9799 54.4134Z" fill="#FA7854"/>
<path d="M44.2438 38.6566C40.5672 38.6566 37.4737 41.2836 36.7613 44.752H9.65848C8.81449 44.752 8.1393 45.4273 8.1393 46.2713C8.1393 47.1153 8.81449 47.7905 9.65848 47.7905H36.7796C37.4917 51.2616 40.567 53.8859 44.262 53.8859C48.4635 53.8859 51.8951 50.4545 51.8951 46.2526C51.8951 42.0509 48.4822 38.6192 44.262 38.6192L44.2438 38.6566ZM44.2438 50.866C41.7118 50.866 39.6678 48.8034 39.6678 46.2898C39.6678 43.7762 41.7118 41.7136 44.2438 41.7136C46.7758 41.7136 48.8198 43.7762 48.8198 46.2898C48.8198 48.8034 46.7758 50.866 44.2438 50.866Z" fill="#FA7854"/>
<path d="M50.3604 28.4912H37.4946C36.7825 25.0201 33.7072 22.3957 30.0121 22.3957C26.3171 22.3957 23.242 25.0227 22.5296 28.4912H9.66388C8.81989 28.4912 8.1447 29.1664 8.1447 30.0104C8.1447 30.8544 8.81989 31.5296 9.66388 31.5296H22.5296C23.2418 35.0007 26.3171 37.6251 30.0121 37.6251C33.7072 37.6251 36.7823 34.9981 37.4946 31.5296H50.3604C51.2043 31.5296 51.8795 30.8544 51.8795 30.0104C51.8795 29.1664 51.2043 28.4912 50.3604 28.4912ZM30.0094 34.5866C27.4774 34.5866 25.4334 32.524 25.4334 30.0104C25.4334 27.4968 27.4774 25.4342 30.0094 25.4342C32.5414 25.4342 34.5854 27.4968 34.5854 30.0104C34.5854 32.524 32.5414 34.5866 30.0094 34.5866Z" fill="#FA7854"/>
<path d="M50.3604 12.2123H23.2393C22.5271 8.74121 19.4519 6.11683 15.7568 6.11683C11.5553 6.11683 8.12377 9.5483 8.12377 13.7502C8.12377 17.9519 11.5367 21.3836 15.7568 21.3836C19.4334 21.3836 22.5269 18.7566 23.2393 15.2882H50.3604C51.2043 15.2882 51.8795 14.6129 51.8795 13.7689C51.8795 12.9249 51.2043 12.2497 50.3604 12.2497V12.2123ZM15.775 18.3077C13.2431 18.3077 11.1991 16.2451 11.1991 13.7315C11.1991 11.2179 13.2431 9.15532 15.775 9.15532C18.307 9.15532 20.351 11.2179 20.351 13.7315C20.351 16.2451 18.307 18.3077 15.775 18.3077Z" fill="#FA7854"/>
</svg>
