<svg width="60" height="60" viewBox="0 0 60 60" fill="none" xmlns="http://www.w3.org/2000/svg">
<path d="M52.94 34.7614H10.2581C4.60401 34.7614 0 30.1641 0 24.5065C0 21.7668 1.06889 19.1867 3.00049 17.254C4.93208 15.3213 7.51058 14.2516 10.2485 14.2516H11.9081V13.9983C11.9081 6.27677 18.1809 0 25.8976 0C32.0203 0 37.3366 3.91245 39.2029 9.65444C40.4125 9.15717 41.7252 8.89448 43.0472 8.89448C48.6357 8.89448 53.1739 13.4449 53.1739 19.0461C53.1739 19.5809 53.1364 20.1063 53.052 20.613C54.871 20.6505 56.6432 21.4011 57.9278 22.6865C59.2405 24 60 25.8296 60 27.6967C60.0094 31.5811 56.8401 34.7619 52.9392 34.7619L52.94 34.7614ZM10.2581 16.062C7.99833 16.062 5.87921 16.944 4.29459 18.5296C2.70062 20.1246 1.82856 22.2451 1.82856 24.4968C1.82856 29.1505 5.61667 32.9407 10.2671 32.9407H52.949C55.8464 32.9407 58.2092 30.5764 58.2092 27.6678C58.2092 26.2792 57.6467 24.9282 56.6715 23.9524C55.6963 22.9766 54.3368 22.4137 52.9584 22.4137H51.9457C51.6551 22.4137 51.3831 22.2729 51.2143 22.0478C51.0456 21.8132 50.9893 21.513 51.0737 21.2408C51.28 20.5653 51.3831 19.8241 51.3831 19.036C51.3831 14.448 47.6512 10.7044 43.0754 10.7044C41.6783 10.7044 40.2999 11.0609 39.0903 11.727C38.8372 11.8678 38.5465 11.8772 38.2839 11.7646C38.0214 11.652 37.8339 11.4174 37.7682 11.1454C36.4555 5.64729 31.589 1.80977 25.9349 1.80977C19.221 1.80977 13.7643 7.27037 13.7643 13.988C13.7643 14.4102 13.7831 14.7573 13.8112 15.0576C13.8394 15.3109 13.755 15.5736 13.5862 15.7613C13.4174 15.9583 13.1642 16.0615 12.9111 16.0615L10.2581 16.062Z" fill="#FA7854"/>
<path d="M30.0145 52.7282C29.5081 52.7282 29.1049 52.3248 29.1049 51.8182V33.8604C29.1049 33.3537 29.5081 32.9503 30.0145 32.9503C30.5208 32.9503 30.924 33.3537 30.924 33.8604V51.8278C30.924 52.325 30.5114 52.7282 30.0145 52.7282Z" fill="#FA7854"/>
<path d="M30.0049 60C27.5013 60 25.4666 57.964 25.4666 55.4589C25.4666 52.9538 27.5013 50.9178 30.0049 50.9178C32.5084 50.9178 34.5431 52.9538 34.5431 55.4589C34.5431 57.964 32.5084 60 30.0049 60ZM30.0049 52.7288C28.5046 52.7288 27.2857 53.9485 27.2857 55.4497C27.2857 56.9509 28.5046 58.1706 30.0049 58.1706C31.5051 58.1706 32.724 56.9509 32.724 55.4497C32.724 53.9485 31.5051 52.7288 30.0049 52.7288Z" fill="#FA7854"/>
<path d="M11.9551 46.1044H10.6518C10.1455 46.1044 9.74228 45.701 9.74228 45.1943C9.74228 44.6877 10.1455 44.2842 10.6518 44.2842H11.9551C14.2899 44.2842 16.184 42.389 16.184 40.0715V33.8602C16.184 33.3536 16.5872 32.9502 17.0935 32.9502C17.5998 32.9502 18.003 33.3536 18.003 33.8602V40.0715C18.003 43.3929 15.2931 46.1044 11.9551 46.1044Z" fill="#FA7854"/>
<path d="M7.31398 49.4539C4.96988 49.4539 3.06644 47.5492 3.06644 45.2036C3.06644 42.8581 4.96988 40.9534 7.31398 40.9534C9.65808 40.9534 11.5615 42.8581 11.5615 45.2036C11.5615 47.5492 9.65808 49.4539 7.31398 49.4539ZM7.31398 42.764C5.97313 42.764 4.88545 43.8523 4.88545 45.194C4.88545 46.5357 5.97313 47.6241 7.31398 47.6241C8.65484 47.6241 9.74228 46.536 9.74228 45.1943C9.74228 43.862 8.65484 42.764 7.31398 42.764Z" fill="#FA7854"/>
<path d="M49.358 49.3788H48.0546C44.7166 49.3788 42.0069 46.6673 42.0069 43.3458V33.8601C42.0069 33.3535 42.4101 32.95 42.9164 32.95C43.4227 32.95 43.8259 33.3535 43.8259 33.8601V43.3458C43.8259 45.6727 45.7199 47.5585 48.0547 47.5585H49.358C49.8644 47.5585 50.2676 47.962 50.2676 48.4686C50.2676 48.9659 49.8643 49.3788 49.358 49.3788Z" fill="#FA7854"/>
<path d="M52.6957 52.7282C50.3516 52.7282 48.4482 50.8236 48.4482 48.478C48.4482 46.1324 50.3516 44.2278 52.6957 44.2278C55.0398 44.2278 56.9433 46.1324 56.9433 48.478C56.9433 50.8236 55.0398 52.7282 52.6957 52.7282ZM52.6957 46.0384C51.3549 46.0384 50.2676 47.1269 50.2676 48.4686C50.2676 49.8103 51.3549 50.8985 52.6957 50.8985C54.0366 50.8985 55.1243 49.8101 55.1243 48.4684C55.1336 47.1361 54.0366 46.0384 52.6957 46.0384Z" fill="#FA7854"/>
</svg>
