<svg width="60" height="60" viewBox="0 0 60 60" fill="none" xmlns="http://www.w3.org/2000/svg">
<path d="M52.8616 18.2255L37.9961 3.36499C36.3564 1.72295 34.1737 0.820304 31.8503 0.820304C29.527 0.820304 27.3472 1.72568 25.7046 3.36499L23.3756 5.69315L18.1187 0.440747C17.5308 -0.146916 16.5829 -0.146916 15.9979 0.440747C15.41 1.02841 15.41 1.97596 15.9979 2.56081L21.2549 7.81321L7.81581 21.2478L2.56166 15.9926C1.9738 15.4049 1.02594 15.4049 0.440893 15.9926C-0.146964 16.5803 -0.146964 17.5278 0.440893 18.1127L5.69504 23.3679L3.3661 25.696C1.72633 27.3381 0.820576 29.5172 0.820576 31.8398C0.820576 34.1595 1.72626 36.3414 3.3661 37.9835L18.2316 52.8441C23.0047 57.6156 29.2714 60 35.5438 60C41.3436 60 47.1265 57.9333 51.7421 53.8506L55.0667 57.1742C55.3592 57.4666 55.7445 57.6128 56.1271 57.6128C56.5124 57.6128 56.895 57.4666 57.1875 57.1742C57.7754 56.5865 57.7754 55.6389 57.1875 55.0541L53.8629 51.7306C62.3602 42.1312 62.042 27.4175 52.856 18.2312L52.8616 18.2255ZM50.7408 50.7186C42.3616 59.0893 28.7346 59.0893 20.3582 50.7186L5.49278 35.8581C4.41831 34.784 3.82485 33.3556 3.82485 31.8373C3.82485 30.3161 4.41833 28.8905 5.49278 27.8165L8.87925 24.4311H8.88206C8.88488 24.4311 8.88206 24.4311 8.88206 24.4283L27.8309 5.48857C28.9054 4.41447 30.3343 3.8212 31.8531 3.8212C33.3719 3.8212 34.8008 4.41448 35.8752 5.48857L50.7407 20.3491C59.1171 28.7227 59.1171 42.348 50.7407 50.7216L50.7408 50.7186Z" fill="#FA7854"/>
</svg>
