<svg width="77" height="60" viewBox="0 0 77 60" fill="none" xmlns="http://www.w3.org/2000/svg">
<path d="M76.999 26.8427C76.999 26.8276 76.9915 26.8163 76.9915 26.8011C76.9877 26.752 76.9725 26.7028 76.9611 26.6499C76.9459 26.6007 76.9346 26.5516 76.9118 26.5024C76.9042 26.4911 76.9042 26.476 76.9004 26.4608L62.1525 0.393249C62.1373 0.363 62.1069 0.344095 62.088 0.317626C62.0539 0.276033 62.0235 0.234441 61.9856 0.196629C61.9477 0.162599 61.9059 0.139911 61.8642 0.117225C61.8225 0.0907567 61.7808 0.068069 61.7353 0.0529454C61.686 0.0340389 61.6329 0.030258 61.5798 0.0226962C61.5457 0.0189143 61.5191 0.00378854 61.4812 0.00378854C61.466 0.00378854 61.4547 0.0113527 61.4395 0.0113527C61.3902 0.0151336 61.3409 0.0264773 61.2878 0.0416019C61.2385 0.0567265 61.1892 0.0642884 61.1437 0.0869758C61.1323 0.0945376 61.1171 0.0945365 61.102 0.0983174C61.0716 0.113443 61.0527 0.143693 61.0261 0.162599C60.9844 0.192848 60.9427 0.226877 60.9086 0.26469C60.8744 0.302501 60.8517 0.344094 60.8251 0.385687C60.7986 0.427279 60.7758 0.468872 60.7607 0.514244C60.7417 0.563399 60.7379 0.616337 60.7303 0.669275C60.7265 0.703306 60.7114 0.729774 60.7114 0.763804V32.3972L16.978 32.4048V0.771367C16.978 0.741117 16.9629 0.710868 16.9591 0.680619C16.9515 0.627683 16.9439 0.578526 16.9287 0.525588C16.9136 0.480214 16.8908 0.43862 16.8681 0.393246C16.8453 0.351653 16.8188 0.31006 16.7884 0.272249C16.7543 0.230656 16.7126 0.200406 16.6709 0.166371C16.6443 0.147465 16.6292 0.120997 16.6026 0.105872C16.5874 0.0983095 16.5723 0.0983095 16.5571 0.0907477C16.5116 0.0680603 16.4623 0.0529382 16.413 0.0415945C16.3637 0.0264699 16.3144 0.0151262 16.2613 0.0113453C16.2423 0.0113453 16.231 0 16.212 0C16.1779 0 16.1513 0.0151249 16.121 0.0189058C16.0679 0.0264686 16.0186 0.0340304 15.9693 0.049155C15.9238 0.0642796 15.8783 0.0869682 15.8366 0.113436C15.7948 0.136123 15.7531 0.162591 15.7152 0.192841C15.6735 0.226871 15.6431 0.268464 15.609 0.310053C15.59 0.336521 15.5635 0.351645 15.5483 0.378114L0.106185 26.4457C0.0986002 26.4608 0.0986002 26.4759 0.091016 26.4911C0.0682615 26.5364 0.0530929 26.5856 0.0417157 26.6348C0.0265463 26.6839 0.0151691 26.7331 0.011377 26.786C0.011377 26.8049 0 26.8162 0 26.8352V59.2362C0 59.361 0.0379229 59.4782 0.091016 59.5803C0.0948081 59.5916 0.0948077 59.603 0.0985998 59.6143C0.132732 59.6748 0.174448 59.7278 0.223751 59.7769C0.284428 59.8374 0.36027 59.8828 0.439917 59.9206C0.458879 59.9319 0.481633 59.9395 0.500595 59.9471C0.584026 59.9773 0.675045 60 0.766061 60H76.2264C76.3515 60 76.4691 59.9622 76.5753 59.9093C76.6056 59.8941 76.6283 59.8714 76.6587 59.8525C76.7345 59.7996 76.7952 59.7391 76.8483 59.6635C76.8597 59.6446 76.8824 59.637 76.8938 59.6181C76.9014 59.6068 76.8976 59.5916 76.9052 59.5803C76.9583 59.482 76.9924 59.3723 76.9962 59.2513C76.9962 59.2438 77 59.24 77 59.2324V59.2286V26.8276L76.999 26.8427ZM1.53875 27.0507L15.4373 3.58115V32.964L1.53875 56.4336V27.0507ZM37.7287 33.94V38.7572H26.1844L27.5952 33.94H37.7287ZM49.1661 33.94L50.5768 38.7572H39.2685V33.94H49.1661ZM61.0326 33.94L63.7593 38.7572H52.1811L50.7704 33.94H61.0326ZM24.5806 38.761H13.7956L16.6512 33.9437H25.9955L24.5848 38.761H24.5806ZM12.8849 40.2961H24.1292L22.1837 46.9434H8.94828L12.8849 40.2961ZM25.733 40.2961H37.7277V46.9434H23.7874L25.733 40.2961ZM37.7277 48.4785V58.4757H20.4079L23.3356 48.4785H37.7277ZM39.2673 48.4785H53.4202L56.3479 58.4757H39.267L39.2673 48.4785ZM39.2673 46.9396V40.2923H51.0271L52.9726 46.9396H39.2673ZM52.6319 40.2961H64.6266L68.3848 46.9434H54.5766L52.6319 40.2961ZM62.2531 32.972V3.69459L75.4584 27.0393V56.3166L62.2531 32.972ZM8.03763 48.4789H21.7313L18.8036 58.4762H2.11397L8.03763 48.4789ZM57.9562 58.4762L55.0285 48.4789H69.2571L74.9115 58.4762H57.9562Z" fill="#FA7854"/>
</svg>
