<svg width="60" height="60" viewBox="0 0 60 60" fill="none" xmlns="http://www.w3.org/2000/svg">
<path d="M50.3378 20.0165H9.66217C7.09999 20.0189 4.64502 21.0394 2.83388 22.8492C1.02244 24.6613 0.00475924 27.1172 0 29.6802V50.3339C0.00476717 52.8971 1.0225 55.3531 2.83388 57.165C4.64526 58.9768 7.10024 59.9952 9.66217 60H50.3378C52.9 59.9952 55.355 58.9771 57.1661 57.165C58.9772 55.3529 59.9952 52.8969 60 50.3339V29.6802C59.9952 27.117 58.9775 24.661 57.1661 22.8492C55.3547 21.0394 52.8998 20.0189 50.3378 20.0165ZM25.829 23.0685H34.1686V56.9485H25.829V23.0685ZM22.7782 56.9485H14.4385L14.4409 23.0685H22.7805L22.7782 56.9485ZM37.2194 23.0685H45.5591V56.9485H37.2194V23.0685ZM3.05049 50.3342V29.6805C3.05526 26.0299 6.01312 23.0734 9.66217 23.0685H11.3925V56.9485H9.66217C6.01312 56.9437 3.05537 53.9847 3.05049 50.3342ZM56.9471 50.3342L56.9495 50.3318C56.9447 53.9847 53.9892 56.9437 50.3378 56.9486H48.6098V23.0686H50.3378C53.9868 23.0734 56.9446 26.03 56.9495 29.6805L56.9471 50.3342Z" fill="#FA7854"/>
<path d="M19.1648 13.5761C19.1171 13.6524 19.0742 13.7335 19.0218 13.805H19.0242C18.7763 14.1364 18.6714 14.5514 18.7358 14.9614C18.8001 15.3692 19.0266 15.7316 19.365 15.97C19.701 16.2084 20.1205 16.299 20.5281 16.2227C20.9332 16.1441 21.2884 15.9056 21.5172 15.5623C21.6173 15.4216 21.7102 15.2714 21.8056 15.1069C23.2737 12.496 23.0044 9.25319 21.1287 6.92132C19.3316 4.45821 20.1109 3.0157 20.5185 2.50778C20.5423 2.47916 20.5924 2.4124 20.6138 2.38379C21.0834 1.71612 20.938 0.795752 20.2849 0.304619C19.6224 -0.186568 18.6904 -0.0697304 18.1684 0.569285C17.4891 1.38235 15.5252 4.41533 18.7786 8.86471C19.8201 10.2238 19.9704 12.0644 19.1648 13.5761Z" fill="#FA7854"/>
<path d="M29.3233 13.5926C29.2828 13.6641 29.2375 13.7357 29.1899 13.8048C28.942 14.1362 28.8395 14.5511 28.9038 14.9612C28.9682 15.3689 29.1946 15.7314 29.533 15.9698C29.8691 16.2082 30.2886 16.2988 30.6937 16.2225C31.1013 16.1438 31.4564 15.9054 31.6853 15.5621C31.7901 15.4166 31.8878 15.2593 31.9737 15.1067C33.4418 12.4958 33.1725 9.25299 31.2967 6.92111C29.4996 4.458 30.279 3.01549 30.6866 2.50757C30.7104 2.48134 30.7629 2.41458 30.7843 2.38358C31.2538 1.71592 31.1085 0.795545 30.4554 0.304412C29.7928 -0.186775 28.8632 -0.0723241 28.3389 0.566698C27.6596 1.37976 25.6957 4.41751 28.949 8.86456C29.9906 10.2285 30.1385 12.0785 29.3233 13.5926Z" fill="#FA7854"/>
<path d="M39.5026 13.5761C39.4549 13.6524 39.4097 13.7335 39.3572 13.805C39.1093 14.1364 39.0069 14.5514 39.0712 14.9614C39.1356 15.3692 39.362 15.7316 39.698 15.97C40.0365 16.2084 40.456 16.299 40.8611 16.2227C41.2663 16.1441 41.6238 15.9056 41.8502 15.5623C41.9503 15.4216 42.0528 15.2714 42.1434 15.1045C43.6068 12.4936 43.3375 9.25557 41.4641 6.92137C39.667 4.45826 40.4464 3.01575 40.854 2.50783C40.8778 2.4816 40.9302 2.41484 40.9517 2.38384C41.4212 1.71618 41.2758 0.795807 40.6228 0.304674C39.9602 -0.186513 39.0282 -0.0720621 38.5062 0.56696C37.827 1.38002 35.863 4.41777 39.1164 8.86482C40.1532 10.224 40.3058 12.0644 39.5026 13.5761Z" fill="#FA7854"/>
</svg>
