<svg width="49" height="60" viewBox="0 0 49 60" fill="none" xmlns="http://www.w3.org/2000/svg">
<path d="M24.4931 0C10.989 0 0 10.9732 0 24.4681C0 29.5422 2.88977 35.3897 6.47611 41.2024C10.0626 47.0147 14.4486 52.6957 17.8225 56.814C21.3038 61.0632 27.6935 61.0608 31.1751 56.814C34.5489 52.6985 38.9375 47.0174 42.5239 41.2024C46.1104 35.39 49 29.5446 49 24.4681C49 10.9732 37.9972 0 24.4931 0ZM24.4931 3.74992C35.9843 3.74992 45.2568 13.0101 45.2568 24.4681C45.2568 27.979 42.7925 33.6413 39.3509 39.2218C35.9094 44.7998 31.5886 50.4086 28.2781 54.4489C26.1318 57.0668 22.8586 57.0575 20.7097 54.4348C17.3967 50.3943 13.0922 44.7996 9.65061 39.2221C6.20905 33.6447 3.74011 27.9796 3.74011 24.4684C3.74011 13.0099 13.0012 3.75026 24.4924 3.75026L24.4931 3.74992ZM24.4931 12.0394C18.8211 12.0394 14.1804 16.6752 14.1804 22.3519C14.1804 28.0284 18.819 32.6501 24.4931 32.6501C30.1652 32.6501 34.8202 28.0284 34.8202 22.3519C34.8202 16.6755 30.1652 12.0394 24.4931 12.0394ZM24.4931 15.7893C28.1521 15.7893 31.0794 18.7095 31.0794 22.3519C31.0794 25.9941 28.1522 28.9098 24.4931 28.9098C20.8341 28.9098 17.9212 25.9919 17.9212 22.3519C17.9212 18.7098 20.8321 15.7893 24.4931 15.7893Z" fill="#FA7854"/>
</svg>
