<svg width="65" height="60" viewBox="0 0 65 60" fill="none" xmlns="http://www.w3.org/2000/svg">
<path d="M37.1425 43.8461C36.5012 43.8461 35.9818 44.3624 35.9818 44.9999C35.9818 45.3057 36.1036 45.5999 36.3213 45.8163C36.5389 46.0326 36.8349 46.1538 37.1425 46.1538H59.1965C59.504 46.1538 59.8 46.0326 60.0177 45.8163C60.2353 45.5999 60.3572 45.3057 60.3572 44.9999C60.3572 44.6941 60.2353 44.3999 60.0177 44.1835C59.8 43.9672 59.5041 43.846 59.1965 43.846L37.1425 43.8461Z" fill="#FA7854"/>
<path d="M24.3743 41.5384C22.4649 41.5384 20.8921 43.1018 20.8921 44.9999C20.8921 46.898 22.4649 48.4614 24.3743 48.4614C26.2836 48.4614 27.8564 46.898 27.8564 44.9999C27.8564 43.1018 26.2836 41.5384 24.3743 41.5384ZM24.3743 43.8461C25.0301 43.8461 25.535 44.348 25.535 44.9999C25.535 45.6518 25.0301 46.1537 24.3743 46.1537C23.7185 46.1537 23.2135 45.6518 23.2135 44.9999C23.2135 44.348 23.7185 43.8461 24.3743 43.8461Z" fill="#FA7854"/>
<path d="M16.2496 41.5384C14.3403 41.5384 12.7675 43.1018 12.7675 44.9999C12.7675 46.898 14.3403 48.4614 16.2496 48.4614C18.159 48.4614 19.7318 46.898 19.7318 44.9999C19.7318 43.1018 18.159 41.5384 16.2496 41.5384ZM16.2496 43.8461C16.9054 43.8461 17.4103 44.348 17.4103 44.9999C17.4103 45.6518 16.9054 46.1537 16.2496 46.1537C15.5938 46.1537 15.0889 45.6518 15.0889 44.9999C15.0889 44.348 15.5938 43.8461 16.2496 43.8461Z" fill="#FA7854"/>
<path d="M8.125 41.5384C6.21563 41.5384 4.64286 43.1018 4.64286 44.9999C4.64286 46.898 6.21563 48.4614 8.125 48.4614C10.0344 48.4614 11.6071 46.898 11.6071 44.9999C11.6071 43.1018 10.0344 41.5384 8.125 41.5384ZM8.125 43.8461C8.7808 43.8461 9.28571 44.348 9.28571 44.9999C9.28571 45.6518 8.7808 46.1537 8.125 46.1537C7.4692 46.1537 6.96429 45.6518 6.96429 44.9999C6.96429 44.348 7.4692 43.8461 8.125 43.8461Z" fill="#FA7854"/>
<path d="M32.4996 24.2311C31.2316 24.2311 30.1782 25.2782 30.1782 26.5388C30.1782 27.7993 31.2316 28.8465 32.4996 28.8465C33.7677 28.8465 34.8211 27.7993 34.8211 26.5388C34.8211 25.2782 33.7677 24.2311 32.4996 24.2311Z" fill="#FA7854"/>
<path d="M32.4996 19.6209C30.419 19.6209 28.3355 20.4084 26.7541 21.9805C26.3014 22.4334 26.3014 23.1632 26.7541 23.6131C27.2097 24.0632 27.9438 24.0632 28.3965 23.6131C30.6715 21.3516 34.3277 21.3516 36.6028 23.6131C37.0555 24.0632 37.7897 24.0632 38.2452 23.6131C38.6979 23.1632 38.6979 22.4333 38.2452 21.9805C36.6637 20.4084 34.5802 19.6209 32.4996 19.6209Z" fill="#FA7854"/>
<path d="M32.4996 13.852C28.9333 13.852 25.367 15.202 22.6508 17.9021C22.1981 18.352 22.1981 19.0848 22.6508 19.5347C23.1035 19.9847 23.8406 19.9847 24.2932 19.5347C28.8345 15.0203 36.1641 15.0203 40.7059 19.5347C41.1586 19.9847 41.8957 19.9847 42.3483 19.5347C42.801 19.0847 42.801 18.352 42.3483 17.9021C39.6322 15.205 36.0661 13.852 32.4996 13.852Z" fill="#FA7854"/>
<path d="M32.4996 8.08246C27.4476 8.08246 22.3953 9.99492 18.5451 13.8199C18.0924 14.2728 18.0924 15.0026 18.5451 15.4526C19.0006 15.9026 19.7348 15.9026 20.1874 15.4526C26.9951 8.68527 38.0012 8.68527 44.8117 15.4526C45.2644 15.9026 45.9985 15.9026 46.4541 15.4526C46.9067 15.0026 46.9067 14.2727 46.4541 13.8199C42.6034 9.99492 37.5518 8.08246 32.4996 8.08246Z" fill="#FA7854"/>
<path d="M8.125 2.18317e-05C7.48371 2.18317e-05 6.96429 0.516367 6.96429 1.15386V11.7434C5.61786 12.2251 4.64286 13.5059 4.64286 15.0001V33.4616H1.16071C0.519421 33.4616 0 33.978 0 34.6155V55.3846C0 56.0221 0.519421 56.5385 1.16071 56.5385H3.48214V58.8462C3.48214 59.4837 4.00156 60 4.64286 60H11.6071C12.2484 60 12.7679 59.4837 12.7679 58.8462V56.5385H52.2321V58.8462C52.2321 59.4837 52.7516 60 53.3929 60H60.3571C60.9984 60 61.5179 59.4837 61.5179 58.8462V56.5385H63.8393C64.4806 56.5385 65 56.0221 65 55.3846V34.6155C65 33.978 64.4806 33.4616 63.8393 33.4616H60.3571V15.0001C60.3571 13.5059 59.3821 12.2251 58.0357 11.7434V1.15386C58.0357 0.848098 57.9138 0.553866 57.6962 0.337498C57.4786 0.121129 57.1826 0 56.875 0C56.2337 0 55.7143 0.516346 55.7143 1.15384V11.7434C54.3678 12.2251 53.3928 13.5058 53.3928 15.0001V33.4616H11.6071V15.0001C11.6071 13.5059 10.6321 12.2251 9.28569 11.7434V1.15384C9.28569 0.848076 9.16382 0.553844 8.94618 0.337476C8.72855 0.121107 8.43261 2.18317e-05 8.125 2.18317e-05ZM8.125 13.8461C8.78951 13.8461 9.28571 14.3394 9.28571 15V33.4615H6.96429V15C6.96429 14.3394 7.46049 13.8461 8.125 13.8461ZM56.875 13.8461C57.5395 13.8461 58.0357 14.3394 58.0357 15V33.4615H55.7143V15C55.7143 14.3394 56.2105 13.8461 56.875 13.8461ZM2.32106 35.7695H62.6782V36.9234H2.32106V35.7695ZM2.32106 39.2311H62.6782V50.7695H2.32106V39.2311ZM2.32106 53.0772H62.6782V54.231H2.32106V53.0772ZM5.8032 56.5387H10.4461V57.6925H5.8032V56.5387ZM54.5532 56.5387H59.1961V57.6925H54.5532V56.5387Z" fill="#FA7854"/>
</svg>
