<svg width="52" height="60" viewBox="0 0 52 60" fill="none" xmlns="http://www.w3.org/2000/svg">
<path d="M22.7196 40.1361L14.0402 31.4848C13.7051 31.1514 13.517 30.6994 13.517 30.228C13.517 29.7566 13.7051 29.3044 14.0402 28.971C14.3754 28.6377 14.83 28.4503 15.3039 28.4503C15.7778 28.4503 16.2324 28.6377 16.5676 28.971L22.6982 35.0798L35.4742 22.1368C35.8065 21.8006 36.2596 21.6095 36.7335 21.6055C37.2075 21.6015 37.6636 21.785 38.0016 22.1155C38.3396 22.4461 38.5317 22.8965 38.5358 23.368C38.5398 23.8394 38.3553 24.2931 38.023 24.6293L22.7196 40.1361Z" fill="#FA7854"/>
<path d="M26.0232 0L26.9168 0.51203C33.3052 4.12383 40.3406 6.46097 47.6289 7.39244L48.7013 7.48844L49.1195 8.47695C51.1858 13.9476 52.1573 19.7673 51.9793 25.6086C52.1347 30.8543 51.0665 36.0645 48.8586 40.8309C44.0867 49.7076 36.1429 56.4825 26.5951 59.8187L26.0232 60L25.4655 59.8187C20.6443 58.2867 16.1776 55.8162 12.3253 52.5509C8.47308 49.2856 5.31228 45.2908 3.02689 40.7989C-1.62384 31.3441 -0.304765 17.4624 2.89105 8.56584L3.24852 7.54178L4.32094 7.39955C11.5998 6.29494 18.6365 3.96583 25.1295 0.51203L26.0232 0ZM46.2025 10.806C39.1301 9.77185 32.298 7.49893 26.0232 4.09269C19.7135 7.35027 12.9279 9.60013 5.91527 10.7597C3.14486 19.2225 2.38344 31.3832 6.237 39.2343C10.3325 47.2693 17.4387 53.3812 26.0232 56.2522C34.4732 53.1067 41.4793 47.0026 45.7271 39.085C48.8228 33.6269 49.5592 19.8234 46.2025 10.806Z" fill="#FA7854"/>
</svg>
