<svg width="75" height="60" viewBox="0 0 75 60" fill="none" xmlns="http://www.w3.org/2000/svg">
<path d="M0.000404089 45.4785C0.000404089 46.6496 0.954503 47.6046 2.1243 47.6046H7.7742C8.18902 51.4 10.7899 54.5352 14.2828 55.7478H11.9349C10.7651 55.7478 9.81102 56.7029 9.81102 57.8739C9.81102 59.0449 10.7651 60 11.9349 60H63.0657C64.2355 60 65.1896 59.0449 65.1896 57.8739C65.1896 56.7029 64.2355 55.7478 63.0657 55.7478H55.0471C58.54 54.5353 61.1409 51.4001 61.5557 47.6046H72.8761C74.0459 47.6046 75 46.6496 75 45.4785V29.6699C75 29.5329 74.9793 29.3917 74.9793 29.2547C74.9793 29.18 75 29.1177 75 29.0429C75 28.8851 74.9793 28.7232 74.9461 28.5737C74.3944 22.0376 68.9021 16.8801 62.2356 16.8801H54.0055V2.1261C54.0055 0.955043 53.0514 0 51.8816 0L2.1239 0.00415253C0.954055 0.00415253 0 0.959238 0 2.13025V45.4824L0.000404089 45.4785ZM12.0631 47.6046H22.8323C22.3345 50.1252 20.1152 52.0396 17.4479 52.0396C14.7806 52.0396 12.5608 50.1252 12.0631 47.6046ZM12.9881 43.3524C13.9879 41.9613 15.6099 41.0436 17.4475 41.0436C19.2852 41.0436 20.9113 41.9572 21.9068 43.3524H12.9881ZM20.6209 55.7476C24.1138 54.5351 26.7147 51.3999 27.1295 47.6044H42.1996C42.6145 51.3998 45.2154 54.535 48.7082 55.7476H20.6209ZM53.998 41.4709C54.9438 41.8653 55.7402 42.5339 56.3335 43.3519H53.998V41.4709ZM49.7502 43.3519H47.4148C47.9997 42.5339 48.8044 41.8654 49.7502 41.4709V43.3519ZM51.8741 52.039C49.2068 52.039 46.9874 50.1247 46.4897 47.6041H57.2589C56.7612 50.1247 54.5414 52.039 51.8741 52.039ZM70.2883 26.9203H63.6304V21.2645C66.7416 21.7836 69.2886 23.9969 70.2883 26.9203ZM59.3747 21.1358V29.0464C59.3747 30.2174 60.3288 31.1725 61.4986 31.1725H70.7491V37.4677H66.9908C65.8209 37.4677 64.8669 38.4228 64.8669 39.5938C64.8669 40.7649 65.821 41.7199 66.9908 41.7199H70.7491V43.3561H61.0754C59.9803 40.2001 57.3046 37.7751 54.0026 37.0318V21.1403H59.3746L59.3747 21.1358ZM49.7507 4.25565V37.0273C46.4487 37.7706 43.7731 40.1957 42.6779 43.3516H26.6404C25.3129 39.5355 21.704 36.7906 17.4437 36.7906C13.1834 36.7906 9.5744 39.5436 8.24697 43.3516H4.24395V24.1083H14.32C15.4899 24.1083 16.4439 23.1532 16.4439 21.9822C16.4439 20.8111 15.4899 19.8561 14.32 19.8561H4.24395V14.1173H21.1937C22.3636 14.1173 23.3176 13.1623 23.3176 11.9912C23.3176 10.8202 22.3635 9.86514 21.1937 9.86514H4.24395V4.26341H49.7506L49.7507 4.25565Z" fill="#FA7854"/>
</svg>
