<svg width="50" height="60" viewBox="0 0 50 60" fill="none" xmlns="http://www.w3.org/2000/svg">
<path d="M4.72153 30.6795H1.15602C0.740282 30.6795 0.403874 31.0154 0.403874 31.4297C0.403874 41.4225 6.55617 50.4072 15.8096 54.0785C14.8988 55.6514 14.4221 57.4209 14.4221 59.2498C14.4221 59.6641 14.7585 60 15.1742 60H34.5081C34.9238 60 35.2603 59.6641 35.2603 59.2498C35.2603 57.4202 34.7836 55.6503 33.8735 54.0778C43.1262 50.4068 49.2785 41.4221 49.2785 31.4297C49.2785 31.0154 48.942 30.6795 48.5263 30.6795H44.1656C46.3908 27.6465 47.8904 24.1176 48.527 20.3834C48.5968 19.975 48.3214 19.5875 47.9123 19.5179L43.6598 18.796C48.1355 13.8771 50.4136 7.3612 49.938 0.69713C49.9087 0.283954 49.5627 -0.0273933 49.1345 0.00190998L1.88392 3.35347C1.68487 3.36776 1.49977 3.46006 1.36903 3.61024C1.23828 3.76079 1.17291 3.95675 1.1876 4.15492C1.3794 6.84871 2.00709 9.44695 3.04712 11.9017L1.21478 11.5906C0.808592 11.5196 0.417096 11.7961 0.347317 12.2042C-0.766574 18.7269 0.827092 25.3728 4.72153 30.6795ZM32.4889 52.994C32.2671 53.0723 32.0945 53.25 32.0232 53.4738C31.952 53.6976 31.9895 53.9419 32.1253 54.1339C33.0464 55.4353 33.5922 56.9316 33.7244 58.4997H15.9579C16.0902 56.9323 16.6366 55.4364 17.5577 54.1346C17.6936 53.9426 17.7311 53.6983 17.6598 53.4745C17.5886 53.2507 17.416 53.0731 17.1941 52.9947C8.28815 49.8526 2.22914 41.5481 1.92065 32.1798H42.6137C42.6166 32.1799 42.6194 32.1813 42.6223 32.1813C42.6246 32.1813 42.6267 32.1798 42.629 32.1798H47.7617C47.4532 41.5477 41.3942 49.8519 32.4889 52.994ZM2.75285 4.79593L48.4793 1.55242C48.7227 7.86783 46.3373 13.9821 41.8704 18.4922L4.83143 12.2046C3.72232 9.86878 3.02109 7.38254 2.75285 4.79593ZM1.71572 13.1975L46.906 20.8691C46.1696 24.4694 44.5688 27.838 42.259 30.6795H6.62089C2.62872 25.7598 0.857988 19.4479 1.71572 13.1975Z" fill="#FA7854"/>
</svg>
