<svg width="64" height="60" viewBox="0 0 64 60" fill="none" xmlns="http://www.w3.org/2000/svg">
<path fill-rule="evenodd" clip-rule="evenodd" d="M53.3709 44.2888V59.8687C53.3709 59.9391 53.3134 60 53.24 60H7.38985C7.31963 60 7.25898 59.9423 7.25898 59.8687V44.2888C7.25898 43.2798 8.07927 42.4566 9.08472 42.4566H10.738C11.7435 42.4566 12.5638 43.2798 12.5638 44.2888V54.5453C12.5638 54.6157 12.6212 54.6766 12.6947 54.6766H47.9388C48.009 54.6766 48.0696 54.6189 48.0696 54.5453L48.0665 44.2888C48.0665 43.2798 48.8867 42.4566 49.8922 42.4566H51.5455C52.551 42.4566 53.3709 43.2798 53.3709 44.2888ZM1.60897 38.0268C5.92753 34.2696 10.0129 34.2375 14.2487 38.0204C17.9959 41.3676 22.0751 42.3862 26.2087 40.3074C26.3172 40.2529 26.4353 40.3651 26.3874 40.4772L25.8991 41.6079C25.6852 42.1043 25.915 42.6777 26.4066 42.8923C26.9013 43.1069 27.4727 42.8763 27.6865 42.383L29.6846 37.7514C30.0101 36.9922 29.5377 36.39 28.9409 36.3164L23.8723 35.6789C23.3361 35.6117 22.8477 35.9961 22.7839 36.5342C22.7169 37.0723 23.0999 37.5624 23.6361 37.6264L25.9981 37.9243C26.1194 37.9403 26.1545 38.1005 26.0491 38.1646C22.4137 40.3651 18.9697 39.6155 15.5477 36.5598C10.5813 32.1268 5.40092 32.1524 0.335696 36.5534C-0.0696607 36.9058 -0.114348 37.524 0.236753 37.934C0.58466 38.3376 1.20042 38.3823 1.60897 38.0268ZM61.8957 42.3798L63.8938 37.7481C64.2193 36.989 63.7469 36.3868 63.1501 36.3131L58.0815 35.6757C57.5453 35.6085 57.0569 35.9928 56.9931 36.531C56.9261 37.0691 57.3091 37.5592 57.8453 37.6232L60.2073 37.9211C60.3286 37.9371 60.3637 38.0973 60.2583 38.1613C56.6229 40.3619 53.1789 39.6123 49.7569 36.5566C44.7905 32.1236 39.6101 32.1491 34.5449 36.5502C34.1395 36.9025 34.0949 37.5207 34.446 37.9307C34.7971 38.3375 35.4131 38.3824 35.8216 38.03C40.1434 34.276 44.2255 34.2408 48.4614 38.0236C52.2086 41.3708 56.2877 42.3894 60.4214 40.3107C60.5299 40.2562 60.648 40.3683 60.6001 40.4804L60.1117 41.6111C59.8979 42.1076 60.1277 42.681 60.6192 42.8956C61.1108 43.1038 61.6819 42.8763 61.8957 42.3798ZM7.30337 19.4741L30.2272 0.0312301C30.2751 -0.01041 30.3453 -0.01041 30.3964 0.0312301L53.3202 19.4741C53.3521 19.4997 53.3649 19.5349 53.3649 19.5734V29.5765C53.3649 30.5855 52.5446 31.4087 51.5392 31.4087H49.8858C48.8804 31.4087 48.0601 30.5855 48.0601 29.5765V22.046C48.0601 22.0043 48.0441 21.9723 48.0154 21.9467L30.3995 7.00068C30.3516 6.95904 30.2814 6.95904 30.2303 7.00068L12.6087 21.9434C12.5767 21.969 12.564 22.0043 12.564 22.0427V29.5732C12.564 30.5822 11.7437 31.4054 10.7382 31.4054H9.08491C8.07946 31.4054 7.25917 30.5822 7.25917 29.5732V19.5701C7.25917 19.5349 7.27464 19.4997 7.30337 19.4741Z" fill="#FA7854"/>
</svg>
