<svg width="79" height="60" viewBox="0 0 79 60" fill="none" xmlns="http://www.w3.org/2000/svg">
<path d="M27.4148 24.6538L29.5838 22.4737C29.8972 22.1587 30.4078 22.1587 30.7247 22.4737C31.0381 22.7887 31.0381 23.3019 30.7247 23.6204L28.5557 25.8005C28.3972 25.9597 28.193 26.0376 27.9853 26.0376C27.7775 26.0376 27.5733 25.9597 27.4148 25.8005C27.0979 25.4855 27.0979 24.9723 27.4148 24.6538ZM29.5803 7.75082C29.7388 7.91008 29.943 7.98795 30.1507 7.98795C30.3585 7.98795 30.5627 7.91008 30.7212 7.75082C31.0346 7.43583 31.0346 6.92265 30.7212 6.60414L28.5522 4.42404C28.2388 4.10905 27.7282 4.10905 27.4113 4.42404C27.098 4.73903 27.098 5.25221 27.4113 5.57072L29.5803 7.75082ZM38.0452 4.70355C38.4888 4.70355 38.8515 4.34255 38.8515 3.89308V0.810475C38.8515 0.364533 38.4924 0 38.0452 0C37.6015 0 37.2388 0.361 37.2388 0.810475V3.89308C37.2388 4.33902 37.6015 4.70355 38.0452 4.70355ZM45.9396 7.98793C46.1474 7.98793 46.3516 7.91007 46.51 7.7508L48.679 5.5707C48.9924 5.25571 48.9924 4.74253 48.679 4.42402C48.3656 4.10903 47.8551 4.10903 47.5382 4.42402L45.3692 6.60412C45.0558 6.91912 45.0558 7.43229 45.3692 7.7508C45.5276 7.91006 45.7319 7.98793 45.9396 7.98793ZM23.8161 15.9228H26.8795C27.3232 15.9228 27.6858 15.5618 27.6858 15.1123C27.6858 14.6664 27.3267 14.3019 26.8795 14.3019L23.8161 14.3054C23.3724 14.3054 23.0098 14.6664 23.0098 15.1159C23.0098 15.5618 23.3689 15.9228 23.8161 15.9228ZM79 24.1373C79 26.5828 78.0458 28.8834 76.3168 30.614C74.6056 32.3234 72.3485 33.2649 69.9576 33.2649H69.9118H39.5945H39.5557C37.8726 33.2649 36.2775 32.5995 35.0697 31.3926C33.8443 30.168 33.1683 28.5401 33.1683 26.8094C33.1683 25.337 33.6753 23.9284 34.5732 22.7924C31.6225 21.4404 29.6542 18.4462 29.6542 15.1158C29.6542 10.4653 33.4183 6.68188 38.0486 6.68188C41.4536 6.68188 44.5346 8.79829 45.8128 11.9198C47.1156 11.5518 48.496 11.4916 49.8481 11.7712C51.6263 7.48521 55.8095 4.65385 60.4821 4.65385C63.4998 4.65385 66.3554 5.81828 68.5175 7.93469C70.521 9.89191 71.7288 12.4684 71.9611 15.2431C73.8309 15.6749 75.5281 16.6978 76.7957 18.1701C78.2147 19.8229 79 21.943 79 24.1373ZM35.8554 21.5607C36.9259 20.7891 38.2041 20.368 39.5175 20.3539C39.4787 17.788 40.5773 15.3317 42.5527 13.6506C43.0914 13.1906 43.676 12.8119 44.2887 12.504C43.2464 10.0053 40.7851 8.29942 38.0456 8.29942C34.3062 8.29942 31.2639 11.3573 31.2639 15.1159C31.2639 18.0322 33.1335 20.6263 35.8554 21.5607ZM77.3874 24.1373C77.3874 20.4636 74.669 17.2748 71.0634 16.7191C70.6796 16.6589 70.3908 16.3333 70.3803 15.9405C70.2253 10.5184 65.8767 6.27128 60.4755 6.27128C56.2431 6.27128 52.4789 8.97172 51.1026 12.9922C50.9617 13.4028 50.5251 13.6293 50.1096 13.5054C47.8419 12.8259 45.4052 13.3426 43.5919 14.8857C41.7609 16.4465 40.8806 18.7187 41.1834 21.1182C41.215 21.3695 41.127 21.6208 40.951 21.7977C40.7714 21.9747 40.5214 22.0561 40.2714 22.0242C40.046 21.9924 39.8207 21.9782 39.5988 21.9782C38.4439 21.9782 37.3207 22.3959 36.4368 23.1639C35.3875 24.0805 34.7819 25.4113 34.7819 26.8127C34.7819 28.1081 35.289 29.3291 36.208 30.2458C37.1129 31.1518 38.303 31.6474 39.5637 31.6474H39.5919H69.92H69.9588C71.9236 31.6474 73.7793 30.8758 75.1842 29.4672C76.6067 28.0374 77.3884 26.1474 77.3884 24.1372L77.3874 24.1373ZM4.04532 46.2962H15.313C15.7567 46.2962 16.1194 45.9352 16.1194 45.4857C16.1194 45.0397 15.7602 44.6752 15.313 44.6752H4.04532C3.60165 44.6752 3.23897 45.0362 3.23897 45.4857C3.23897 45.9352 3.60165 46.2962 4.04532 46.2962ZM33.546 36.0679C30.7396 36.0679 28.458 38.3613 28.458 41.1821C28.458 41.628 28.8171 41.9925 29.2643 41.9925C29.708 41.9925 30.0707 41.6315 30.0707 41.1821C30.0707 39.2567 31.6306 37.6888 33.5461 37.6888C35.4616 37.6888 37.0215 39.2567 37.0215 41.1821C37.0215 43.1074 35.4616 44.6753 33.5461 44.6753H19.9716C19.5279 44.6753 19.1653 45.0363 19.1653 45.4857C19.1653 45.9317 19.5244 46.2962 19.9716 46.2962H33.5461C36.3525 46.2962 38.6341 44.0029 38.6341 41.1821C38.6341 38.3613 36.3488 36.0679 33.546 36.0679ZM8.02508 43.4896H18.6627C21.7684 43.4896 24.2931 40.952 24.2931 37.8305C24.2931 34.7089 21.7684 32.1713 18.6627 32.1713C15.5571 32.1713 13.0324 34.7089 13.0324 37.8305C13.0324 38.2764 13.3915 38.6409 13.8387 38.6409C14.2824 38.6409 14.6451 38.2799 14.6451 37.8305C14.6451 35.6043 16.4479 33.7923 18.6627 33.7923C20.8775 33.7923 22.6803 35.6043 22.6803 37.8305C22.6803 40.0566 20.8775 41.8686 18.6627 41.8686H8.02504C7.58137 41.8686 7.2187 42.2297 7.2187 42.6791C7.2187 43.1251 7.58141 43.4896 8.02508 43.4896ZM24.8771 47.4854H11.6127C11.1691 47.4854 10.8064 47.8464 10.8064 48.2959C10.8064 48.7418 11.1655 49.1064 11.6127 49.1064H24.8771C27.4193 49.1064 29.4898 51.1839 29.4898 53.7427C29.4898 56.298 27.4229 58.3791 24.8771 58.3791C22.3348 58.3791 20.2643 56.3016 20.2643 53.7427C20.2643 53.2968 19.9052 52.9323 19.458 52.9323C19.0143 52.9323 18.6517 53.2933 18.6517 53.7427C18.6517 57.1935 21.444 60 24.877 60C28.3101 60 31.1024 57.1934 31.1024 53.7427C31.1024 50.2885 28.3101 47.4854 24.8771 47.4854ZM7.18315 47.4854H0.806345C0.362676 47.4854 0 47.8464 0 48.2959C0 48.7418 0.359161 49.1064 0.806345 49.1064H7.18315C7.62682 49.1064 7.9895 48.7454 7.9895 48.2959C7.9895 47.8464 7.62682 47.4854 7.18315 47.4854ZM44.4333 36.3829C43.9967 36.2909 43.5707 36.5705 43.4791 37.0093L43.0671 38.9701C42.9756 39.4089 43.2537 39.8372 43.6904 39.9292C43.7467 39.9398 43.803 39.9469 43.8559 39.9469C44.2291 39.9469 44.5636 39.685 44.6446 39.3028L45.0566 37.342C45.1481 36.9067 44.87 36.4749 44.4333 36.3829ZM47.127 43.0684C46.6904 42.9764 46.2644 43.256 46.1728 43.6949L45.7608 45.6556C45.6693 46.0945 45.9474 46.5227 46.3841 46.6147C46.4404 46.6254 46.4968 46.6324 46.5496 46.6324C46.9228 46.6324 47.2573 46.3705 47.3383 45.9883L47.7503 44.0275C47.8418 43.5887 47.5637 43.1604 47.127 43.0684ZM55.3172 43.0684C54.8806 42.9764 54.4546 43.256 54.363 43.6949L53.951 45.6556C53.8595 46.0945 54.1376 46.5227 54.5743 46.6147C54.6306 46.6254 54.6869 46.6324 54.7398 46.6324C55.113 46.6324 55.4475 46.3705 55.5285 45.9883L55.9405 44.0275C56.032 43.5887 55.7503 43.1604 55.3172 43.0684ZM63.5039 43.0684C63.0673 42.9764 62.6412 43.256 62.5497 43.6949L62.1377 45.6556C62.0461 46.0945 62.3243 46.5227 62.7609 46.6147C62.8173 46.6254 62.8736 46.6324 62.9264 46.6324C63.2997 46.6324 63.6342 46.3705 63.7152 45.9883L64.1271 44.0275C64.2187 43.5887 63.9405 43.1604 63.5039 43.0684ZM52.6517 36.3829C52.2151 36.2909 51.7891 36.5705 51.6975 37.0093L51.2855 38.9701C51.194 39.4089 51.4721 39.8372 51.9088 39.9292C51.9651 39.9398 52.0215 39.9469 52.0743 39.9469C52.4475 39.9469 52.782 39.685 52.863 39.3028L53.275 37.342C53.3665 36.9067 53.0884 36.4749 52.6517 36.3829ZM60.8737 36.3829C60.437 36.2909 60.011 36.5705 59.9194 37.0093L59.5074 38.9701C59.4159 39.4089 59.6941 39.8372 60.1307 39.9292C60.187 39.9398 60.2434 39.9469 60.2962 39.9469C60.6694 39.9469 61.0039 39.685 61.0849 39.3028L61.4969 37.342C61.5884 36.9067 61.3103 36.4749 60.8737 36.3829ZM69.0956 36.3829C68.659 36.2909 68.2329 36.5705 68.1413 37.0093L67.7294 38.9701C67.6378 39.4089 67.916 39.8372 68.3526 39.9292C68.409 39.9398 68.4653 39.9469 68.5181 39.9469C68.8913 39.9469 69.2259 39.685 69.3068 39.3028L69.7188 37.342C69.8104 36.9067 69.5287 36.4749 69.0956 36.3829ZM41.6303 49.7505C41.1937 49.6585 40.7676 49.9381 40.676 50.377L40.2641 52.3377C40.1725 52.7766 40.4507 53.2048 40.8873 53.2968C40.9437 53.3074 41 53.3145 41.0528 53.3145C41.4261 53.3145 41.7606 53.0526 41.8416 52.6704L42.2535 50.7096C42.3451 50.2708 42.0669 49.8425 41.6303 49.7505ZM44.324 56.4325C43.8874 56.3405 43.4613 56.6201 43.3698 57.059L42.9578 59.0197C42.8662 59.4586 43.1444 59.8868 43.581 59.9788C43.6374 59.9895 43.6937 59.9965 43.7465 59.9965C44.1198 59.9965 44.4543 59.7346 44.5353 59.3524L44.9472 57.3917C45.0388 56.9563 44.7606 56.5245 44.324 56.4325ZM52.5142 56.4325C52.0776 56.3405 51.6515 56.6201 51.5599 57.059L51.148 59.0197C51.0564 59.4586 51.3346 59.8868 51.7712 59.9788C51.8276 59.9895 51.8839 59.9965 51.9367 59.9965C52.3099 59.9965 52.6445 59.7346 52.7254 59.3524L53.1374 57.3917C53.229 56.9563 52.9508 56.5245 52.5142 56.4325ZM60.7044 56.4325C60.2677 56.3405 59.8417 56.6201 59.7501 57.059L59.3382 59.0197C59.2466 59.4586 59.5248 59.8868 59.9614 59.9788C60.0177 59.9895 60.0741 59.9965 60.1269 59.9965C60.5001 59.9965 60.8347 59.7346 60.9156 59.3524L61.3276 57.3917C61.4192 56.9563 61.1375 56.5245 60.7044 56.4325ZM49.8522 49.7505C49.4156 49.6585 48.9895 49.9381 48.898 50.377L48.486 52.3377C48.3944 52.7766 48.6726 53.2048 49.1092 53.2968C49.1656 53.3074 49.2219 53.3145 49.2747 53.3145C49.648 53.3145 49.9825 53.0526 50.0635 52.6704L50.4754 50.7096C50.567 50.2708 50.2853 49.8425 49.8522 49.7505ZM58.0706 49.7505C57.634 49.6585 57.2079 49.9381 57.1164 50.377L56.7044 52.3377C56.6128 52.7766 56.891 53.2048 57.3276 53.2968C57.384 53.3074 57.4403 53.3145 57.4931 53.3145C57.8664 53.3145 58.2009 53.0526 58.2819 52.6704L58.6939 50.7096C58.7854 50.2708 58.5072 49.8425 58.0706 49.7505ZM66.2925 49.7505C65.8559 49.6585 65.4298 49.9381 65.3383 50.377L64.9263 52.3377C64.8348 52.7766 65.1129 53.2048 65.5496 53.2968C65.6059 53.3074 65.6622 53.3145 65.7151 53.3145C66.0883 53.3145 66.4228 53.0526 66.5038 52.6704L66.9158 50.7096C67.0073 50.2708 66.7292 49.8425 66.2925 49.7505Z" fill="#FA7854"/>
</svg>
